<?xml version='1.0' encoding='utf-8'?>
<svg xmlns="http://www.w3.org/2000/svg" viewBox="0 0 256 256"> <g transform="matrix(25.898 0 0 -25.898 225.39 256)"> <path d="m0,0c.652,0 1.182.529 1.182,1.182v7.519c0,.653-.53,1.182-1.182,1.182h-7.521c-.653,0-1.182-.529-1.182-1.182v-7.519c0-.653.529-1.182 1.182-1.182h7.521z" fill="#231f20"/> </g> <g transform="matrix(25.898 0 0 -25.898 30.601 5.2417)"> <path d="m0,0c-.541,0-.981-.44-.981-.981v-7.52c0-.541.44-.981.981-.981h7.521c.542,0 .982.44.982.981v7.52c0,.541-.44.981-.982.981h-7.521z" fill="#fff"/> </g> <g transform="matrix(25.898 0 0 -25.898 165 36.627)"> <path d="m0,0c-.068.01-.123.07-.123.141 0,.054.031.099.074.125-.045.025-.074.072-.074.125 0,.08.064.144.144.144h.715c.08,0 .145-.064.145-.144 0-.055-.031-.102-.078-.125 .045-.024.078-.071.078-.125 0-.071-.055-.131-.123-.141l.867-2.347c.055-.152.082-.322.082-.492v-4.161c0-.156-.127-.283-.285-.283h-2.088c-.156,0-.283.127-.283.283v4.161c0,.17.027.34.08.492l.869,2.347z" fill="#231f20"/> </g> <g transform="matrix(25.898 0 0 -25.898 61.657 97.858)"> <path d="m0,0c.018-.016.043-.025.068-.025 .059,0 .106.046.106.103 0,.018-.006.035-.014.051l-.117.273c-.027.055-.086.092-.15.092-.094,0-.17-.074-.17-.168 0-.045.017-.086.047-.115l.23-.211zm.389-.051c.009-.023.015-.049.015-.074 0-.107-.088-.195-.195-.195-.039,0-.076.013-.107.033l-.471.391c-.051.06-.082.136-.082.222 0,.19.154.344.344.344 .14,0 .263-.088.314-.211l.182-.51z" fill="#231f20"/> </g> <g transform="matrix(25.898 0 0 -25.898 110.82 108.07)"> <path d="m0,0c.057,0 .104-.047.104-.104v-.16c0-.056-.047-.102-.104-.102l-.096.004c.116-.073.2-.198.2-.344v-3.498c0-.18-.145-.324-.323-.324h-1.855c-.18,0-.324.144-.324.324l.002,3.498c0,.146.082.271.197.344l-.096-.004c-.057,0-.101.046-.101.102v.16c0,.057.044.104.101.104h2.295z" fill="#231f20"/> </g> </svg>